<svg width="178" height="177" xmlns="http://www.w3.org/2000/svg" xmlns:xlink="http://www.w3.org/1999/xlink" xml:space="preserve" overflow="hidden"><defs><clipPath id="clip0"><path d="M197.858 163.164 287.363 250.473 200.054 339.978 110.548 252.669Z" fill-rule="evenodd" clip-rule="evenodd"/></clipPath><clipPath id="clip1"><path d="M197.858 163.164 287.363 250.473 200.054 339.978 110.548 252.669Z" fill-rule="evenodd" clip-rule="evenodd"/></clipPath><clipPath id="clip2"><path d="M197.858 163.164 287.363 250.473 200.054 339.978 110.548 252.669Z" fill-rule="evenodd" clip-rule="evenodd"/></clipPath></defs><g transform="translate(-110 -163)"><g clip-path="url(#clip0)"><g clip-path="url(#clip1)"><g clip-path="url(#clip2)"><path d="M197.177 182.514 131.695 249.643 200.689 316.944 266.171 249.815ZM230.564 275.126 204.458 249.661 229.014 224.487 255.12 249.952ZM223.42 219.03 198.864 244.204 172.758 218.738 197.314 193.565ZM167.302 224.333 193.407 249.798 168.852 274.971 142.746 249.506ZM174.446 280.428 199.001 255.255 225.107 280.72 200.552 305.893Z" fill="#FF0066"/><path d="M208.754 224.739 202.228 218.372 208.594 211.846 204.865 208.208 198.498 214.735 191.972 208.368 188.334 212.098 194.86 218.464 188.494 224.99 192.223 228.628 198.59 222.102 205.116 228.468 208.754 224.739Z" fill="#FF0066"/><path d="M180.287 251.646 180.222 246.434 171.105 246.547 170.992 237.43 165.78 237.495 165.893 246.612 156.776 246.725 156.841 251.938 165.958 251.824 166.071 260.941 171.283 260.877 171.17 251.76 180.287 251.646Z" fill="#FF0066"/><path d="M220.034 243.02 223.672 239.29 240.454 255.661 236.816 259.39Z" fill="#FF0066"/><path d="M189.112 274.72 192.75 270.99 209.532 287.361 205.894 291.09Z" fill="#FF0066"/><path d="M206.643 277.265C205.639 278.295 203.99 278.315 202.96 277.311 201.93 276.306 201.909 274.657 202.914 273.627 203.918 272.597 205.568 272.577 206.598 273.581 207.627 274.586 207.648 276.235 206.643 277.265Z" fill="#FF0066"/><path d="M195.73 288.453C194.725 289.483 193.076 289.503 192.046 288.499 191.016 287.494 190.996 285.845 192 284.815 193.005 283.785 194.654 283.765 195.684 284.769 196.714 285.774 196.734 287.423 195.73 288.453Z" fill="#FF0066"/></g></g></g></g></svg>